<svg width="72" height="73" viewBox="0 0 72 73" fill="none" xmlns="http://www.w3.org/2000/svg">
<rect y="0.648315" width="72" height="72" rx="8" fill="#FFECE1"/>
<g clip-path="url(#clip0_15_324)">
<path d="M48.2267 46.9897C48.9253 45.935 49.3333 44.6723 49.3333 43.315C49.3333 39.639 46.3427 36.6483 42.6667 36.6483C38.9907 36.6483 36 39.639 36 43.315C36 46.991 38.9907 49.9816 42.6667 49.9816C44.024 49.9816 45.2867 49.5737 46.3413 48.875L49.724 52.2577C49.984 52.5177 50.3253 52.6483 50.6667 52.6483C51.008 52.6483 51.3493 52.5177 51.6093 52.2577C52.1307 51.7363 52.1307 50.8936 51.6093 50.3723L48.2267 46.9897ZM38.6667 43.315C38.6667 41.1096 40.4613 39.315 42.6667 39.315C44.872 39.315 46.6667 41.1096 46.6667 43.315C46.6667 45.5203 44.872 47.315 42.6667 47.315C40.4613 47.315 38.6667 45.5203 38.6667 43.315ZM28 26.6483C28 27.7523 27.104 28.6483 26 28.6483C24.896 28.6483 24 27.7523 24 26.6483C24 25.5443 24.896 24.6483 26 24.6483C27.104 24.6483 28 25.5443 28 26.6483ZM33.3333 26.6483C33.3333 27.7523 32.4373 28.6483 31.3333 28.6483C30.2293 28.6483 29.3333 27.7523 29.3333 26.6483C29.3333 25.5443 30.2293 24.6483 31.3333 24.6483C32.4373 24.6483 33.3333 25.5443 33.3333 26.6483ZM45.3333 20.6483H26.6667C22.9907 20.6483 20 23.639 20 27.315V43.315C20 46.991 22.9907 49.9816 26.6667 49.9816H33.3333C34.0707 49.9816 34.6667 49.3856 34.6667 48.6483C34.6667 47.911 34.0707 47.315 33.3333 47.315H26.6667C24.4613 47.315 22.6667 45.5203 22.6667 43.315V32.6483H49.3333V36.6483C49.3333 37.3843 49.9293 37.9816 50.6667 37.9816C51.404 37.9816 52 37.3843 52 36.6483V27.315C52 23.639 49.0093 20.6483 45.3333 20.6483ZM22.6667 29.9816V27.315C22.6667 25.1096 24.4613 23.315 26.6667 23.315H45.3333C47.5387 23.315 49.3333 25.1096 49.3333 27.315V29.9816H22.6667Z" fill="#CC4E00"/>
</g>
<defs>
<clipPath id="clip0_15_324">
<rect width="32" height="32" fill="white" transform="translate(20 20.6483)"/>
</clipPath>
</defs>
</svg>
