<svg width="72" height="73" viewBox="0 0 72 73" fill="none" xmlns="http://www.w3.org/2000/svg">
<rect y="0.648438" width="72" height="72" rx="8" fill="#EFE9F7"/>
<g clip-path="url(#clip0_15_421)">
<path d="M41.3334 28.6484C41.687 28.6484 42.0261 28.7889 42.2762 29.039C42.5262 29.289 42.6667 29.6281 42.6667 29.9818C42.6667 30.3354 42.5262 30.6745 42.2762 30.9246C42.0261 31.1746 41.687 31.3151 41.3334 31.3151H30.6667C30.3131 31.3151 29.9739 31.1746 29.7239 30.9246C29.4738 30.6745 29.3334 30.3354 29.3334 29.9818C29.3334 29.6281 29.4738 29.289 29.7239 29.039C29.9739 28.7889 30.3131 28.6484 30.6667 28.6484H41.3334ZM51.6094 52.2578C51.3593 52.5077 51.0202 52.6482 50.6667 52.6482C50.3131 52.6482 49.9741 52.5077 49.724 52.2578L46.5147 49.0484C45.5643 49.6551 44.4609 49.9788 43.3334 49.9818C42.1467 49.9818 40.9866 49.6299 39.9999 48.9706C39.0132 48.3113 38.2442 47.3742 37.7901 46.2779C37.336 45.1815 37.2171 43.9751 37.4486 42.8112C37.6802 41.6473 38.2516 40.5782 39.0907 39.7391C39.9298 38.9 40.9989 38.3286 42.1628 38.0971C43.3267 37.8655 44.5331 37.9844 45.6295 38.4385C46.7258 38.8926 47.6629 39.6617 48.3222 40.6483C48.9815 41.635 49.3334 42.7951 49.3334 43.9818C49.3303 45.1093 49.0066 46.2127 48.4 47.1631L51.6094 50.3724C51.8593 50.6225 51.9997 50.9616 51.9997 51.3151C51.9997 51.6687 51.8593 52.0077 51.6094 52.2578ZM43.3334 47.3151C43.9926 47.3151 44.6371 47.1196 45.1853 46.7533C45.7334 46.3871 46.1607 45.8665 46.413 45.2574C46.6652 44.6483 46.7313 43.9781 46.6026 43.3315C46.474 42.6849 46.1566 42.0909 45.6904 41.6247C45.2242 41.1586 44.6303 40.8411 43.9837 40.7125C43.3371 40.5839 42.6668 40.6499 42.0577 40.9022C41.4487 41.1545 40.9281 41.5817 40.5618 42.1299C40.1955 42.678 40 43.3225 40 43.9818C40 44.8658 40.3512 45.7137 40.9763 46.3388C41.6015 46.9639 42.4493 47.3151 43.3334 47.3151ZM37.3334 49.9818H29.3334C28.2725 49.9818 27.2551 49.5603 26.5049 48.8102C25.7548 48.0601 25.3334 47.0426 25.3334 45.9818V27.3151C25.3334 26.2542 25.7548 25.2368 26.5049 24.4867C27.2551 23.7365 28.2725 23.3151 29.3334 23.3151H45.3334C45.687 23.3151 46.0261 23.4556 46.2762 23.7056C46.5262 23.9557 46.6667 24.2948 46.6667 24.6484V35.3151C46.6667 35.6687 46.8072 36.0079 47.0572 36.2579C47.3073 36.508 47.6464 36.6484 48 36.6484C48.3536 36.6484 48.6928 36.508 48.9428 36.2579C49.1929 36.0079 49.3334 35.6687 49.3334 35.3151V24.6484C49.3334 23.5876 48.9119 22.5702 48.1618 21.82C47.4116 21.0699 46.3942 20.6484 45.3334 20.6484H29.3334C27.5659 20.6506 25.8714 21.3536 24.6216 22.6034C23.3719 23.8532 22.6688 25.5476 22.6667 27.3151V45.9818C22.6688 47.7492 23.3719 49.4437 24.6216 50.6935C25.8714 51.9433 27.5659 52.6463 29.3334 52.6484H37.3334C37.687 52.6484 38.0261 52.508 38.2762 52.2579C38.5262 52.0079 38.6667 51.6687 38.6667 51.3151C38.6667 50.9615 38.5262 50.6223 38.2762 50.3723C38.0261 50.1222 37.687 49.9818 37.3334 49.9818Z" fill="#6B3FA2"/>
</g>
<defs>
<clipPath id="clip0_15_421">
<rect width="32" height="32" fill="white" transform="translate(20 20.6484)"/>
</clipPath>
</defs>
</svg>
