<svg width="72" height="73" viewBox="0 0 72 73" fill="none" xmlns="http://www.w3.org/2000/svg">
<rect y="0.648438" width="72" height="72" rx="8" fill="#EFE9F7"/>
<g clip-path="url(#clip0_15_414)">
<path d="M30.6667 20.6484H26.6667C22.9907 20.6484 20 23.6391 20 27.3151V31.3151C20 32.7858 21.196 33.9818 22.6667 33.9818H30.6667C32.1373 33.9818 33.3333 32.7858 33.3333 31.3151V23.3151C33.3333 21.8444 32.1373 20.6484 30.6667 20.6484ZM22.6667 31.3151V27.3151C22.6667 25.1098 24.4613 23.3151 26.6667 23.3151H30.6667V31.3151H22.6667ZM38.6667 33.9818H46.6667C48.1373 33.9818 49.3333 32.7858 49.3333 31.3151V27.3151C49.3333 23.6391 46.3427 20.6484 42.6667 20.6484H38.6667C37.196 20.6484 36 21.8444 36 23.3151V31.3151C36 32.7858 37.196 33.9818 38.6667 33.9818ZM38.6667 23.3151H42.6667C44.872 23.3151 46.6667 25.1098 46.6667 27.3151V31.3151H38.6667V23.3151ZM30.6667 36.6484H22.6667C21.196 36.6484 20 37.8444 20 39.3151V43.3151C20 46.9911 22.9907 49.9818 26.6667 49.9818H30.6667C32.1373 49.9818 33.3333 48.7858 33.3333 47.3151V39.3151C33.3333 37.8444 32.1373 36.6484 30.6667 36.6484ZM26.6667 47.3151C24.4613 47.3151 22.6667 45.5204 22.6667 43.3151V39.3151H30.6667V47.3151H26.6667ZM51.6093 50.3724L48.2227 46.9858C48.9213 45.9311 49.3333 44.6711 49.3333 43.3151C49.3333 39.6391 46.3427 36.6484 42.6667 36.6484C38.9907 36.6484 36 39.6391 36 43.3151C36 46.9911 38.9907 49.9818 42.6667 49.9818C44.0227 49.9818 45.2827 49.5698 46.3373 48.8711L49.724 52.2578C49.984 52.5178 50.3253 52.6484 50.6667 52.6484C51.008 52.6484 51.3493 52.5178 51.6093 52.2578C52.1307 51.7364 52.1307 50.8938 51.6093 50.3724ZM38.6667 43.3151C38.6667 41.1098 40.4613 39.3151 42.6667 39.3151C44.872 39.3151 46.6667 41.1098 46.6667 43.3151C46.6667 45.5204 44.872 47.3151 42.6667 47.3151C40.4613 47.3151 38.6667 45.5204 38.6667 43.3151Z" fill="#6B3FA2"/>
</g>
<defs>
<clipPath id="clip0_15_414">
<rect width="32" height="32" fill="white" transform="translate(20 20.6484)"/>
</clipPath>
</defs>
</svg>
