<svg width="72" height="73" viewBox="0 0 72 73" fill="none" xmlns="http://www.w3.org/2000/svg">
<rect y="0.648315" width="72" height="72" rx="8" fill="#EFE9F7"/>
<g clip-path="url(#clip0_15_258)">
<path d="M46.6667 20.6483H25.3333C23.9188 20.6483 22.5623 21.2102 21.5621 22.2104C20.5619 23.2106 20 24.5672 20 25.9816V41.9816C20 43.3961 20.5619 44.7527 21.5621 45.7529C22.5623 46.7531 23.9188 47.315 25.3333 47.315H29.2L35.1347 52.3323C35.3754 52.5361 35.6806 52.6479 35.996 52.6479C36.3114 52.6479 36.6166 52.5361 36.8573 52.3323L42.8 47.315H46.6667C48.0812 47.315 49.4377 46.7531 50.4379 45.7529C51.4381 44.7527 52 43.3961 52 41.9816V25.9816C52 24.5672 51.4381 23.2106 50.4379 22.2104C49.4377 21.2102 48.0812 20.6483 46.6667 20.6483ZM49.3333 41.9816C49.3333 42.6889 49.0524 43.3672 48.5523 43.8673C48.0522 44.3674 47.3739 44.6483 46.6667 44.6483H42.8C42.1697 44.6485 41.5599 44.8719 41.0787 45.279L36 49.5683L30.924 45.279C30.4421 44.8714 29.8312 44.6479 29.2 44.6483H25.3333C24.6261 44.6483 23.9478 44.3674 23.4477 43.8673C22.9476 43.3672 22.6667 42.6889 22.6667 41.9816V25.9816C22.6667 25.2744 22.9476 24.5961 23.4477 24.096C23.9478 23.5959 24.6261 23.315 25.3333 23.315H46.6667C47.3739 23.315 48.0522 23.5959 48.5523 24.096C49.0524 24.5961 49.3333 25.2744 49.3333 25.9816V41.9816Z" fill="#6B3FA2"/>
<path d="M29.3333 29.9817H36C36.3536 29.9817 36.6928 29.8412 36.9428 29.5911C37.1929 29.3411 37.3333 29.0019 37.3333 28.6483C37.3333 28.2947 37.1929 27.9556 36.9428 27.7055C36.6928 27.4555 36.3536 27.315 36 27.315H29.3333C28.9797 27.315 28.6406 27.4555 28.3905 27.7055C28.1405 27.9556 28 28.2947 28 28.6483C28 29.0019 28.1405 29.3411 28.3905 29.5911C28.6406 29.8412 28.9797 29.9817 29.3333 29.9817Z" fill="#6B3FA2"/>
<path d="M42.6667 32.6483H29.3333C28.9797 32.6483 28.6406 32.7888 28.3905 33.0388C28.1405 33.2889 28 33.628 28 33.9816C28 34.3353 28.1405 34.6744 28.3905 34.9245C28.6406 35.1745 28.9797 35.315 29.3333 35.315H42.6667C43.0203 35.315 43.3594 35.1745 43.6095 34.9245C43.8595 34.6744 44 34.3353 44 33.9816C44 33.628 43.8595 33.2889 43.6095 33.0388C43.3594 32.7888 43.0203 32.6483 42.6667 32.6483Z" fill="#6B3FA2"/>
<path d="M42.6667 37.9817H29.3333C28.9797 37.9817 28.6406 38.1221 28.3905 38.3722C28.1405 38.6222 28 38.9614 28 39.315C28 39.6686 28.1405 40.0078 28.3905 40.2578C28.6406 40.5078 28.9797 40.6483 29.3333 40.6483H42.6667C43.0203 40.6483 43.3594 40.5078 43.6095 40.2578C43.8595 40.0078 44 39.6686 44 39.315C44 38.9614 43.8595 38.6222 43.6095 38.3722C43.3594 38.1221 43.0203 37.9817 42.6667 37.9817Z" fill="#6B3FA2"/>
</g>
<defs>
<clipPath id="clip0_15_258">
<rect width="32" height="32" fill="white" transform="translate(20 20.6483)"/>
</clipPath>
</defs>
</svg>
