<svg width="72" height="73" viewBox="0 0 72 73" fill="none" xmlns="http://www.w3.org/2000/svg">
<rect y="0.648438" width="72" height="72" rx="8" fill="#EFE9F7"/>
<g clip-path="url(#clip0_15_428)">
<path d="M51.2187 42.1018C51.2187 42.1018 39.5733 36.8084 39.532 36.7951C38.5613 36.4644 37.508 36.7084 36.7827 37.4338C36.0573 38.1591 35.8133 39.2124 36.1933 40.3018L41.452 51.8684C41.664 52.3364 42.1267 52.6404 42.6413 52.6498H42.6667C43.1707 52.6498 43.6333 52.3644 43.86 51.9124L46.328 46.9764L51.264 44.5084C51.724 44.2778 52.0107 43.8058 52.0013 43.2911C51.992 42.7778 51.688 42.3151 51.22 42.1018H51.2187ZM44.7373 44.7898C44.48 44.9191 44.2693 45.1284 44.1413 45.3858L42.7227 48.2231L38.664 39.3218L47.572 43.3724L44.7387 44.7884L44.7373 44.7898ZM37.216 49.9284C36.9867 49.9484 36.756 49.9631 36.5227 49.9724C35.632 49.0911 33.3093 46.6151 31.6907 43.3164H32.6667C33.4027 43.3164 34 42.7204 34 41.9831C34 41.2458 33.4027 40.6498 32.6667 40.6498H30.6267C30.2387 39.3804 30 38.0364 30 36.6498C30 35.2631 30.24 33.9204 30.6293 32.6498H41.372C41.5293 33.1658 41.6627 33.6938 41.7653 34.2324C41.904 34.9564 42.604 35.4338 43.324 35.2924C44.0467 35.1551 44.5213 34.4564 44.384 33.7338C44.3147 33.3671 44.232 33.0058 44.14 32.6498H48.664C48.6813 32.6498 48.7 32.6498 48.7173 32.6498C49.116 33.9138 49.3307 35.2578 49.3307 36.6511C49.3307 37.0604 49.312 37.4644 49.276 37.8644C49.2107 38.5978 49.7507 39.2458 50.484 39.3124C51.22 39.3844 51.8667 38.8378 51.932 38.1044C51.9747 37.6258 51.9973 37.1404 51.9973 36.6511C52 27.8258 44.8227 20.6484 36 20.6484C27.1773 20.6484 20 27.8258 20 36.6484C20 45.4711 27.1773 52.6484 35.9987 52.6484C36.488 52.6484 36.972 52.6258 37.4493 52.5831C38.1827 52.5178 38.7253 51.8711 38.66 51.1364C38.5947 50.4044 37.9493 49.8631 37.2147 49.9271L37.216 49.9284ZM27.856 40.6498H23.3333C23.316 40.6498 23.2987 40.6498 23.28 40.6498C22.8813 39.3858 22.6667 38.0418 22.6667 36.6484C22.6667 35.2551 22.8813 33.9111 23.28 32.6471C23.2973 32.6471 23.3147 32.6471 23.3333 32.6471H27.856C27.5293 33.9204 27.3333 35.2591 27.3333 36.6471C27.3333 38.0351 27.528 39.3738 27.856 40.6471V40.6498ZM31.6973 29.9831C33.0587 27.2138 34.9173 25.0178 36.0027 23.8658C37.0893 25.0164 38.948 27.2084 40.3093 29.9831H31.6973ZM47.544 29.9831H43.24C42.1853 27.4684 40.7227 25.3324 39.464 23.7738C42.9027 24.7004 45.796 26.9698 47.544 29.9831ZM32.5333 23.7738C31.2747 25.3324 29.8107 27.4684 28.7573 29.9818H24.456C26.2027 26.9684 29.0947 24.6991 32.5333 23.7738ZM24.456 43.3151H28.7573C29.8107 45.8298 31.2747 47.9644 32.5333 49.5231C29.096 48.5964 26.204 46.3271 24.456 43.3151Z" fill="#6B3FA2"/>
</g>
<defs>
<clipPath id="clip0_15_428">
<rect width="32" height="32" fill="white" transform="translate(20 20.6484)"/>
</clipPath>
</defs>
</svg>
