<svg width="72" height="73" viewBox="0 0 72 73" fill="none" xmlns="http://www.w3.org/2000/svg">
<rect y="0.648315" width="72" height="72" rx="8" fill="#FFECE1"/>
<g clip-path="url(#clip0_15_310)">
<path d="M29.3333 20.6483H25.3333C22.392 20.6483 20 23.0403 20 25.9816V29.9816C20 32.923 22.392 35.315 25.3333 35.315H29.3333C32.2747 35.315 34.6667 32.923 34.6667 29.9816V25.9816C34.6667 23.0403 32.2747 20.6483 29.3333 20.6483ZM32 29.9816C32 31.4523 30.804 32.6483 29.3333 32.6483H25.3333C23.8627 32.6483 22.6667 31.4523 22.6667 29.9816V25.9816C22.6667 24.511 23.8627 23.315 25.3333 23.315H29.3333C30.804 23.315 32 24.511 32 25.9816V29.9816ZM29.3333 27.315V28.6483C29.3333 29.3843 28.736 29.9816 28 29.9816H26.6667C25.9307 29.9816 25.3333 29.3843 25.3333 28.6483V27.315C25.3333 26.579 25.9307 25.9816 26.6667 25.9816H28C28.736 25.9816 29.3333 26.579 29.3333 27.315ZM42.6667 35.315H46.6667C49.608 35.315 52 32.923 52 29.9816V25.9816C52 23.0403 49.608 20.6483 46.6667 20.6483H42.6667C39.7253 20.6483 37.3333 23.0403 37.3333 25.9816V29.9816C37.3333 32.923 39.7253 35.315 42.6667 35.315ZM40 25.9816C40 24.511 41.196 23.315 42.6667 23.315H46.6667C48.1373 23.315 49.3333 24.511 49.3333 25.9816V29.9816C49.3333 31.4523 48.1373 32.6483 46.6667 32.6483H42.6667C41.196 32.6483 40 31.4523 40 29.9816V25.9816ZM42.6667 28.6483V27.315C42.6667 26.579 43.264 25.9816 44 25.9816H45.3333C46.0693 25.9816 46.6667 26.579 46.6667 27.315V28.6483C46.6667 29.3843 46.0693 29.9816 45.3333 29.9816H44C43.264 29.9816 42.6667 29.3843 42.6667 28.6483ZM29.3333 37.9816H25.3333C22.392 37.9816 20 40.3736 20 43.315V47.315C20 50.2563 22.392 52.6483 25.3333 52.6483H29.3333C32.2747 52.6483 34.6667 50.2563 34.6667 47.315V43.315C34.6667 40.3736 32.2747 37.9816 29.3333 37.9816ZM32 47.315C32 48.7857 30.804 49.9816 29.3333 49.9816H25.3333C23.8627 49.9816 22.6667 48.7857 22.6667 47.315V43.315C22.6667 41.8443 23.8627 40.6483 25.3333 40.6483H29.3333C30.804 40.6483 32 41.8443 32 43.315V47.315ZM29.3333 44.6483V45.9816C29.3333 46.7176 28.736 47.315 28 47.315H26.6667C25.9307 47.315 25.3333 46.7176 25.3333 45.9816V44.6483C25.3333 43.9123 25.9307 43.315 26.6667 43.315H28C28.736 43.315 29.3333 43.9123 29.3333 44.6483ZM42.6667 39.9816V41.315C42.6667 42.419 41.7707 43.315 40.6667 43.315H39.3333C38.2293 43.315 37.3333 42.419 37.3333 41.315V39.9816C37.3333 38.8776 38.2293 37.9816 39.3333 37.9816H40.6667C41.7707 37.9816 42.6667 38.8776 42.6667 39.9816ZM46.6667 45.315C46.6667 46.419 45.7707 47.315 44.6667 47.315C43.5627 47.315 42.6667 46.419 42.6667 45.315C42.6667 44.211 43.5627 43.315 44.6667 43.315C45.7707 43.315 46.6667 44.211 46.6667 45.315ZM42.6667 49.315V50.6483C42.6667 51.7523 41.7707 52.6483 40.6667 52.6483H39.3333C38.2293 52.6483 37.3333 51.7523 37.3333 50.6483V49.315C37.3333 48.211 38.2293 47.315 39.3333 47.315H40.6667C41.7707 47.315 42.6667 48.211 42.6667 49.315ZM52 39.9816V41.315C52 42.419 51.104 43.315 50 43.315H48.6667C47.5627 43.315 46.6667 42.419 46.6667 41.315V39.9816C46.6667 38.8776 47.5627 37.9816 48.6667 37.9816H50C51.104 37.9816 52 38.8776 52 39.9816Z" fill="#CC4E00"/>
</g>
<defs>
<clipPath id="clip0_15_310">
<rect width="32" height="32" fill="white" transform="translate(20 20.6483)"/>
</clipPath>
</defs>
</svg>
