<svg width="73" height="73" viewBox="0 0 73 73" fill="none" xmlns="http://www.w3.org/2000/svg">
<rect x="0.666626" y="0.648315" width="72" height="72" rx="8" fill="#EFE9F7"/>
<g clip-path="url(#clip0_15_260)">
<path d="M40.788 41.9817C49.548 41.9337 52.6666 37.2937 52.6666 33.315C52.6658 32.2484 52.2996 31.2143 51.6291 30.3848C50.9585 29.5554 50.024 28.9806 48.9813 28.7564C49.1626 28.2404 49.32 27.767 49.4253 27.4084C49.6581 26.6283 49.7038 25.8043 49.5588 25.0033C49.4138 24.2023 49.0821 23.4467 48.5906 22.7977C48.0952 22.1282 47.4491 21.5848 46.7046 21.2114C45.9601 20.838 45.1382 20.6451 44.3053 20.6484H29.028C28.1951 20.6451 27.3732 20.838 26.6287 21.2114C25.8842 21.5848 25.2381 22.1282 24.7426 22.7977C24.2512 23.4467 23.9195 24.2023 23.7745 25.0033C23.6295 25.8043 23.6752 26.6283 23.908 27.4084C24.0133 27.767 24.1746 28.2404 24.352 28.7564C23.3092 28.9806 22.3747 29.5554 21.7042 30.3848C21.0336 31.2143 20.6675 32.2484 20.6666 33.315C20.6666 37.2937 23.7853 41.9337 32.5453 41.9817C32.6232 42.3865 32.6638 42.7975 32.6666 43.2097V47.315C32.6895 47.6712 32.6363 48.0281 32.5104 48.362C32.3844 48.6959 32.1888 48.9992 31.9364 49.2515C31.6841 49.5039 31.3809 49.6995 31.0469 49.8254C30.713 49.9513 30.3561 50.0046 30 49.9817H28.6666C28.313 49.9817 27.9739 50.1222 27.7238 50.3722C27.4738 50.6223 27.3333 50.9614 27.3333 51.315C27.3333 51.6686 27.4738 52.0078 27.7238 52.2578C27.9739 52.5079 28.313 52.6484 28.6666 52.6484H44.6666C45.0202 52.6484 45.3594 52.5079 45.6094 52.2578C45.8595 52.0078 46 51.6686 46 51.315C46 50.9614 45.8595 50.6223 45.6094 50.3722C45.3594 50.1222 45.0202 49.9817 44.6666 49.9817H43.344C42.9871 50.0057 42.6292 49.9533 42.2941 49.828C41.9591 49.7026 41.6547 49.5072 41.4013 49.2548C41.1478 49.0024 40.9512 48.6987 40.8245 48.3642C40.6978 48.0297 40.644 47.672 40.6666 47.315V43.2084C40.6695 42.7966 40.7102 42.386 40.788 41.9817ZM48 31.315C48.5304 31.315 49.0391 31.5257 49.4142 31.9008C49.7892 32.2759 50 32.7846 50 33.315C50 36.027 47.8546 38.915 41.952 39.275C42.2472 38.8721 42.5881 38.5048 42.968 38.1804C45.0933 36.2657 46.7872 33.9209 47.9373 31.3017C47.9586 31.303 47.9773 31.315 48 31.315ZM23.3333 33.315C23.3333 32.7846 23.544 32.2759 23.9191 31.9008C24.2942 31.5257 24.8029 31.315 25.3333 31.315C25.356 31.315 25.3746 31.303 25.396 31.3017C26.546 33.9209 28.2399 36.2657 30.3653 38.1804C30.7451 38.5048 31.0861 38.8721 31.3813 39.275C25.4786 38.915 23.3333 36.027 23.3333 33.315ZM34.684 49.9817C35.1248 49.1629 35.3483 48.2448 35.3333 47.315V43.2097C35.3379 41.8682 35.0504 40.5417 34.4906 39.3225C33.9309 38.1033 33.1124 37.0206 32.092 36.1497C29.3807 33.5584 27.4341 30.2715 26.4653 26.6484C26.3514 26.2659 26.3295 25.862 26.4014 25.4695C26.4732 25.077 26.6367 24.707 26.8786 24.3897C27.1274 24.0544 27.4515 23.7824 27.8249 23.5957C28.1984 23.409 28.6105 23.3128 29.028 23.315H44.3053C44.7232 23.3134 45.1356 23.4104 45.5091 23.598C45.8825 23.7857 46.2065 24.0587 46.4546 24.395C46.6965 24.7124 46.8601 25.0823 46.9319 25.4748C47.0037 25.8673 46.9818 26.2713 46.868 26.6537C45.8982 30.2749 43.9518 33.5599 41.2413 36.1497C40.2209 37.0204 39.4024 38.1028 38.8427 39.3218C38.2829 40.5408 37.9953 41.867 38 43.2084V47.315C37.9849 48.2448 38.2085 49.1629 38.6493 49.9817H34.684Z" fill="#6B3FA2"/>
</g>
<defs>
<clipPath id="clip0_15_260">
<rect width="32" height="32" fill="white" transform="translate(20.6666 20.6483)"/>
</clipPath>
</defs>
</svg>
