<svg width="72" height="73" viewBox="0 0 72 73" fill="none" xmlns="http://www.w3.org/2000/svg">
<rect y="0.648315" width="72" height="72" rx="8" fill="#FFECE1"/>
<g clip-path="url(#clip0_15_317)">
<path d="M45.3333 25.9816H43.8653C43.2453 22.943 40.552 20.6483 37.3333 20.6483H26.6667C22.9907 20.6483 20 23.639 20 27.315V44.4536C20 45.5123 20.58 46.4803 21.512 46.979C21.936 47.207 22.4013 47.319 22.8653 47.319C23.42 47.319 23.9733 47.1576 24.452 46.839L28.3853 44.2163C29.3067 46.7963 31.7733 48.6483 34.6667 48.6483H42.2627L47.548 52.1736C48.0267 52.4923 48.58 52.6536 49.1347 52.6536C49.5987 52.6536 50.0627 52.5403 50.488 52.3123C51.42 51.8123 52 50.8443 52 49.787V32.6483C52 28.9723 49.0093 25.9816 45.3333 25.9816ZM22.9733 44.6203C22.948 44.6363 22.8747 44.6843 22.7707 44.6297C22.6653 44.5737 22.6653 44.4843 22.6653 44.455V27.315C22.6653 25.1096 24.46 23.315 26.6653 23.315H37.332C39.5373 23.315 41.332 25.1096 41.332 27.315V36.6483C41.332 38.8536 39.5373 40.6483 37.332 40.6483H29.332C28.924 40.6483 28.6107 40.8603 28.5787 40.8816L22.9733 44.6203ZM49.3333 49.7883C49.3333 49.8163 49.3333 49.907 49.2293 49.963C49.1227 50.0203 49.0507 49.971 49.0267 49.9536L43.4067 46.2056C43.188 46.0603 42.9307 45.9816 42.6667 45.9816H34.6667C32.928 45.9816 31.4467 44.867 30.896 43.315H37.3333C41.0093 43.315 44 40.3243 44 36.6483V28.6483H45.3333C47.5387 28.6483 49.3333 30.443 49.3333 32.6483V49.7883ZM28 29.9816C28 28.7963 28.5213 27.679 29.4293 26.9163C30.3373 26.1536 31.532 25.831 32.7133 26.0456C34.3253 26.327 35.652 27.6523 35.936 29.2683C36.2333 30.9643 35.4267 32.659 33.928 33.487C33.332 33.815 33.332 33.911 33.332 33.9816C33.332 34.719 32.7347 35.315 31.9987 35.315C31.2627 35.315 30.6653 34.719 30.6653 33.9816C30.6653 32.2376 32.0493 31.4763 32.64 31.151C33.0267 30.939 33.4333 30.4376 33.3093 29.7296C33.2173 29.207 32.7733 28.763 32.252 28.6723C31.844 28.5976 31.4493 28.7016 31.1427 28.9603C30.8387 29.2136 30.6653 29.587 30.6653 29.983C30.6653 30.7203 30.068 31.3163 29.332 31.3163C28.596 31.3163 27.9987 30.7203 27.9987 29.983L28 29.9816ZM33.3333 37.9816C33.3333 38.7176 32.736 39.315 32 39.315C31.264 39.315 30.6667 38.7176 30.6667 37.9816C30.6667 37.2456 31.264 36.6483 32 36.6483C32.736 36.6483 33.3333 37.2456 33.3333 37.9816Z" fill="#CC4E00"/>
</g>
<defs>
<clipPath id="clip0_15_317">
<rect width="32" height="32" fill="white" transform="translate(20 20.6483)"/>
</clipPath>
</defs>
</svg>
