<svg width="73" height="73" viewBox="0 0 73 73" fill="none" xmlns="http://www.w3.org/2000/svg">
<rect x="0.333344" y="0.648315" width="72" height="72" rx="8" fill="#EFE9F7"/>
<g clip-path="url(#clip0_15_259)">
<path d="M51.9427 52.2577C51.6827 52.5177 51.3413 52.6483 51 52.6483C50.6587 52.6483 50.3173 52.5177 50.0573 52.2577L42.0987 44.299C39.7987 46.1817 36.8627 47.315 33.6667 47.315C26.3147 47.315 20.3333 41.3337 20.3333 33.9817C20.3333 26.6297 26.3147 20.6483 33.6667 20.6483C36.0107 20.6483 38.316 21.2657 40.3347 22.4323C40.972 22.8017 41.1907 23.6177 40.82 24.255C40.5733 24.6817 40.1253 24.9203 39.6653 24.9203C39.4387 24.9203 39.2093 24.863 38.9987 24.7417C37.3867 23.8083 35.5427 23.315 33.6667 23.315C27.7853 23.315 23 28.1003 23 33.9817C23 35.5377 23.3427 37.0137 23.9453 38.347L29.0107 32.2683C29.4933 31.687 30.2053 31.335 30.96 31.3003C31.7093 31.267 32.456 31.551 32.992 32.0883L35.5627 34.659L47.316 21.1017C47.7987 20.543 48.6413 20.4857 49.196 20.9643C49.7533 21.4457 49.816 22.2883 49.3347 22.8457L37.628 36.4003C37.14 36.9657 36.432 37.3057 35.684 37.3337C34.9413 37.3523 34.2067 37.0737 33.6773 36.5443L31.1067 33.9737L25.4227 40.7403C27.38 43.1243 30.3493 44.647 33.6667 44.647C39.548 44.647 44.3333 39.8617 44.3333 33.9803C44.3333 33.7803 44.3267 33.5817 44.316 33.3843C44.2773 32.6483 44.8427 32.0217 45.5773 31.9817C46.3067 31.9283 46.94 32.507 46.98 33.2417C46.9933 33.4857 47 33.7323 47 33.979C47 37.1763 45.8667 40.1123 43.984 42.411L51.9427 50.3697C52.464 50.891 52.464 51.7337 51.9427 52.255V52.2577Z" fill="#6B3FA2"/>
</g>
<defs>
<clipPath id="clip0_15_259">
<rect width="32" height="32" fill="white" transform="translate(20.3333 20.6483)"/>
</clipPath>
</defs>
</svg>
