<svg width="138" height="60" viewBox="0 0 138 60" fill="none" xmlns="http://www.w3.org/2000/svg">
<g clip-path="url(#clip0_4_4838)">
<path d="M16.7466 22.1452L21.6599 11.9493C22.0301 11.1812 23.13 11.199 23.4752 11.9787L27.9755 22.1452L38.0974 26.0693C38.9484 26.3993 38.9488 27.6033 38.098 27.9338L28 31.8564L23.4986 46.469C23.2141 47.3927 21.9149 47.4155 21.5982 46.5024L16.5177 31.8564L6.81646 27.9367C5.97968 27.5986 5.98354 26.4126 6.8225 26.0799L16.7466 22.1452Z" fill="#09BC8A"/>
</g>
<path d="M55.5748 25.68V37.88C55.5748 38.7067 55.7615 39.3067 56.1348 39.68C56.5348 40.0267 57.2015 40.2 58.1348 40.2H60.9348V44H57.3348C55.2815 44 53.7082 43.52 52.6148 42.56C51.5215 41.6 50.9748 40.04 50.9748 37.88V25.68H48.3748V21.96H50.9748V16.48H55.5748V21.96H60.9348V25.68H55.5748ZM63.6176 32.88C63.6176 30.6667 64.071 28.7067 64.9776 27C65.911 25.2933 67.1643 23.9733 68.7376 23.04C70.3376 22.08 72.0977 21.6 74.0177 21.6C75.751 21.6 77.2577 21.9467 78.5377 22.64C79.8443 23.3067 80.8843 24.1467 81.6577 25.16V21.96H86.2577V44H81.6577V40.72C80.8843 41.76 79.831 42.6267 78.4976 43.32C77.1643 44.0133 75.6443 44.36 73.9377 44.36C72.0443 44.36 70.311 43.88 68.7376 42.92C67.1643 41.9333 65.911 40.5733 64.9776 38.84C64.071 37.08 63.6176 35.0933 63.6176 32.88ZM81.6577 32.96C81.6577 31.44 81.3377 30.12 80.6977 29C80.0843 27.88 79.271 27.0267 78.2577 26.44C77.2443 25.8533 76.151 25.56 74.9776 25.56C73.8043 25.56 72.711 25.8533 71.6976 26.44C70.6843 27 69.8576 27.84 69.2176 28.96C68.6043 30.0533 68.2977 31.36 68.2977 32.88C68.2977 34.4 68.6043 35.7333 69.2176 36.88C69.8576 38.0267 70.6843 38.9067 71.6976 39.52C72.7377 40.1067 73.831 40.4 74.9776 40.4C76.151 40.4 77.2443 40.1067 78.2577 39.52C79.271 38.9333 80.0843 38.08 80.6977 36.96C81.3377 35.8133 81.6577 34.48 81.6577 32.96ZM103.367 21.6C105.1 21.6 106.647 21.96 108.007 22.68C109.394 23.4 110.474 24.4667 111.247 25.88C112.02 27.2933 112.407 29 112.407 31V44H107.887V31.68C107.887 29.7067 107.394 28.2 106.407 27.16C105.42 26.0933 104.074 25.56 102.367 25.56C100.66 25.56 99.3004 26.0933 98.287 27.16C97.3004 28.2 96.807 29.7067 96.807 31.68V44H92.247V21.96H96.807V24.48C97.5537 23.5733 98.5004 22.8667 99.647 22.36C100.82 21.8533 102.06 21.6 103.367 21.6ZM122.784 14.4V44H118.224V14.4H122.784ZM131.09 19.04C130.264 19.04 129.57 18.76 129.01 18.2C128.45 17.64 128.17 16.9467 128.17 16.12C128.17 15.2933 128.45 14.6 129.01 14.04C129.57 13.48 130.264 13.2 131.09 13.2C131.89 13.2 132.57 13.48 133.13 14.04C133.69 14.6 133.97 15.2933 133.97 16.12C133.97 16.9467 133.69 17.64 133.13 18.2C132.57 18.76 131.89 19.04 131.09 19.04ZM133.33 21.96V44H128.77V21.96H133.33Z" fill="#172A3A"/>
<defs>
<clipPath id="clip0_4_4838">
<rect width="32" height="32" fill="white" transform="translate(0 30) rotate(-45)"/>
</clipPath>
</defs>
</svg>
